<?xml version="1.0" standalone="no"?>
<!DOCTYPE svg PUBLIC "-//W3C//DTD SVG 20010904//EN"
 "http://www.w3.org/TR/2001/REC-SVG-20010904/DTD/svg10.dtd">
<svg version="1.0" xmlns="http://www.w3.org/2000/svg"
 width="1024.000000pt" height="821.000000pt" viewBox="0 0 1024.000000 821.000000"
 preserveAspectRatio="xMidYMid meet">

<g transform="translate(0.000000,821.000000) scale(0.100000,-0.100000)"
fill="#000000" stroke="none">
<path d="M5785 7503 c643 -117 1204 -426 1564 -863 11 -14 20 -19 21 -13 0 7
-26 43 -58 80 -278 322 -701 584 -1172 726 -142 43 -347 87 -398 86 -27 -1
-15 -5 43 -16z"/>
<path d="M8389 7016 c-70 -11 -134 -28 -144 -36 -14 -12 -16 -25 -11 -75 l6
-62 -150 -58 c-124 -48 -151 -62 -156 -81 -4 -14 29 -130 89 -316 52 -161 139
-428 192 -593 54 -165 102 -306 107 -312 17 -21 46 -15 178 35 l125 48 0 39
c0 22 -4 52 -8 68 -6 23 -4 27 12 27 30 0 69 20 73 39 3 9 -1 79 -8 156 -54
602 -95 1037 -99 1072 -7 49 -27 74 -58 72 -12 -1 -79 -11 -148 -23z m179 -8
c5 -7 36 -293 67 -636 43 -471 54 -626 46 -636 -7 -8 -25 -16 -42 -18 -38 -6
-29 -27 -125 297 -96 326 -186 623 -226 740 -32 95 -47 200 -30 217 10 10 204
45 263 47 20 0 41 -5 47 -11z m-308 -210 c6 -13 89 -288 186 -611 134 -446
173 -591 165 -601 -6 -8 -68 -35 -137 -61 -134 -50 -146 -50 -159 3 -3 15 -48
158 -100 317 -281 869 -275 849 -262 863 16 16 255 111 280 112 9 0 22 -10 27
-22z"/>
<path d="M6348 6968 c-13 -24 -39 -74 -57 -113 -18 -38 -35 -71 -36 -73 -1 -1
-22 9 -46 23 -30 17 -59 25 -92 25 -55 0 -79 -10 -124 -53 l-33 -31 0 30 c0
17 -6 38 -13 48 -32 43 -97 -37 -97 -118 l0 -48 -41 41 c-23 22 -51 41 -63 41
-17 0 -15 -4 13 -21 37 -22 70 -58 71 -74 0 -6 -14 -9 -32 -7 -46 5 -98 -32
-125 -88 -11 -25 -36 -113 -53 -195 -18 -83 -34 -155 -36 -162 -2 -9 -16 -8
-56 3 -60 16 -311 64 -336 64 -43 0 12 -18 88 -29 93 -14 257 -49 278 -60 9
-5 14 -35 15 -95 2 -74 5 -90 21 -102 11 -8 23 -14 27 -14 21 0 62 49 90 107
22 47 34 62 42 54 6 -6 15 -11 19 -11 15 0 8 22 -17 52 -47 56 -27 160 39 204
30 19 49 14 71 -20 14 -21 15 -33 5 -84 -12 -66 -6 -92 20 -92 27 0 46 30 59
95 21 99 20 99 39 81 34 -29 135 -76 167 -76 18 0 52 7 75 15 97 34 180 4 194
-71 4 -20 11 -44 16 -53 5 -9 19 -38 32 -64 31 -68 69 -92 138 -91 91 1 189
56 226 126 25 47 18 127 -17 197 -34 68 -74 104 -135 120 -45 12 -22 -29 -246
439 -33 67 -61 122 -63 122 -2 0 -14 -19 -27 -42z m152 -246 c67 -140 120
-255 118 -257 -2 -1 -18 -6 -35 -10 -32 -6 -33 -6 -33 28 0 60 -44 138 -91
163 -39 20 -85 18 -108 -5 -18 -18 -19 -17 -50 48 -17 37 -31 69 -31 72 0 11
101 221 105 217 2 -1 58 -117 125 -256z"/>
<path d="M3170 6505 c0 -5 24 -48 54 -95 30 -47 60 -97 67 -112 13 -30 29 -37
29 -13 0 33 -148 252 -150 220z"/>
<path d="M7138 6459 c-24 -13 -118 -155 -118 -177 0 -24 11 -34 337 -296 155
-124 291 -226 302 -226 24 0 121 134 121 167 0 16 -75 85 -297 273 -164 139
-305 256 -313 260 -9 5 -23 4 -32 -1z m250 -200 c125 -105 251 -212 280 -237
29 -25 64 -54 78 -64 13 -11 24 -24 24 -29 0 -14 -93 -147 -107 -153 -6 -3
-110 74 -230 171 -120 97 -260 209 -310 250 -51 41 -93 79 -93 84 0 16 110
169 121 169 6 0 112 -86 237 -191z"/>
<path d="M2766 6418 c-9 -35 -8 -36 29 -49 19 -7 35 -17 35 -21 0 -11 -15 -10
-45 4 -33 15 -37 10 -24 -37 14 -49 53 -106 125 -185 52 -56 57 -59 77 -45 12
7 55 23 96 34 41 12 78 26 83 33 23 35 -22 145 -84 206 -55 55 -119 76 -199
67 -39 -5 -64 -3 -73 4 -11 9 -15 6 -20 -11z"/>
<path d="M2137 6292 c-31 -32 -57 -61 -57 -66 0 -12 161 -196 172 -196 6 0 38
27 71 60 60 57 62 60 47 84 -25 40 -150 176 -164 176 -6 0 -37 -26 -69 -58z
m152 -44 c39 -46 71 -88 71 -95 0 -13 -100 -105 -110 -101 -13 5 -150 163
-150 173 0 14 92 105 106 105 7 0 44 -37 83 -82z"/>
<path d="M4537 5922 c-3 -20 -13 -68 -22 -107 -25 -107 -4 -298 46 -415 19
-44 24 -48 60 -52 45 -4 46 -1 20 50 -37 75 -69 250 -78 425 -6 129 -16 168
-26 99z"/>
<path d="M4973 5787 c-45 -67 -154 -229 -243 -359 -88 -131 -156 -238 -151
-238 9 0 491 701 491 714 0 21 -25 -9 -97 -117z"/>
<path d="M6330 5861 c0 -5 35 -32 78 -61 42 -30 114 -85 160 -123 46 -38 85
-67 88 -64 11 11 -139 137 -268 225 -49 34 -58 37 -58 23z"/>
<path d="M4045 5848 c-44 -24 -125 -121 -125 -150 0 -21 29 -5 38 21 14 41 87
110 122 118 17 3 30 9 30 14 0 12 -41 11 -65 -3z"/>
<path d="M5473 5773 c-5 -16 -8 -57 -8 -93 0 -76 22 -122 76 -158 31 -22 42
-23 134 -20 76 3 114 10 159 29 33 13 61 30 64 36 2 8 -20 2 -53 -13 -70 -32
-175 -49 -240 -40 -90 14 -137 93 -122 209 2 23 8 50 12 60 4 10 3 17 -4 17
-6 0 -14 -12 -18 -27z"/>
<path d="M6061 4889 c-149 -289 -264 -478 -678 -1116 -138 -212 -146 -223
-171 -217 -52 11 -288 134 -422 219 -164 105 -381 255 -555 384 -153 114 -155
115 -155 102 0 -6 28 -32 63 -57 34 -25 69 -51 77 -57 9 -7 38 -28 65 -47 28
-19 77 -55 110 -80 33 -25 82 -61 109 -79 26 -19 69 -54 95 -78 25 -25 62 -57
81 -71 34 -26 150 -121 160 -132 3 -3 63 -53 133 -110 71 -58 140 -115 154
-127 l26 -21 -20 -34 c-11 -18 -36 -62 -55 -98 -41 -75 -52 -94 -183 -330
-152 -273 -170 -308 -161 -317 5 -4 10 -3 12 2 4 10 77 142 372 675 74 134
181 314 237 400 132 202 432 673 525 823 l73 117 41 -33 c22 -18 62 -50 89
-71 26 -21 47 -34 47 -29 0 5 -5 14 -11 20 -9 9 -4 19 20 39 44 37 213 235
273 319 61 86 108 177 108 207 -1 15 -9 2 -25 -35 -41 -100 -154 -249 -346
-461 l-45 -49 -52 80 c-29 43 -52 85 -52 91 0 7 42 94 93 195 111 220 119 237
110 237 -5 0 -68 -117 -142 -261z"/>
<path d="M3278 4875 c-5 -5 -8 -12 -8 -17 0 -4 405 -8 900 -8 593 0 900 3 900
10 0 6 -53 10 -137 10 -76 0 -478 3 -893 6 -415 4 -758 3 -762 -1z"/>
<path d="M9160 4789 c0 -6 9 -8 20 -4 11 3 29 3 40 0 41 -13 39 10 60 -634 6
-168 7 -308 3 -312 -5 -4 -120 -56 -258 -117 -137 -60 -400 -176 -583 -257
-184 -80 -335 -145 -337 -143 -4 4 -13 183 -21 401 -4 103 -10 187 -13 187 -3
0 -120 -52 -260 -117 -170 -79 -258 -125 -269 -140 -31 -49 -13 -63 288 -213
l280 -140 217 96 c120 53 328 145 463 204 135 60 306 135 380 168 l135 59 -3
84 c-1 46 -7 248 -12 449 -6 201 -13 374 -16 385 -11 37 -36 55 -76 55 -21 0
-38 -5 -38 -11z"/>
<path d="M2051 4731 c-2 -92 62 -263 149 -392 72 -107 206 -259 264 -301 49
-36 25 -5 -76 101 -186 193 -292 381 -326 581 l-9 55 -2 -44z"/>
<path d="M2289 4690 c90 -24 158 -55 230 -104 30 -20 59 -35 65 -33 16 6 -126
95 -197 124 -34 14 -86 27 -117 29 l-55 4 74 -20z"/>
<path d="M4208 4658 c-61 -83 -201 -299 -196 -303 5 -5 215 295 225 322 9 23
-4 14 -29 -19z"/>
<path d="M6955 4505 c-36 -16 -112 -92 -102 -102 4 -4 24 9 45 29 51 48 82 68
109 68 13 0 23 5 23 10 0 14 -39 11 -75 -5z"/>
<path d="M1904 4393 c2 -10 8 -33 11 -51 28 -140 155 -327 278 -410 60 -41 67
-44 67 -34 0 5 -22 23 -49 41 -123 79 -253 270 -283 411 -6 33 -16 60 -21 60
-4 0 -6 -8 -3 -17z"/>
<path d="M7676 4391 c-12 -19 20 -26 117 -27 55 0 102 -5 108 -11 52 -52 -121
-121 -223 -89 -40 12 -36 -9 3 -23 62 -22 109 -14 216 35 39 18 50 47 29 79
-19 29 -16 28 -126 30 -47 0 -92 4 -101 8 -10 5 -20 4 -23 -2z"/>
<path d="M7994 4379 c9 -13 29 -50 44 -81 29 -63 48 -76 37 -27 -10 47 -59
123 -80 128 -18 3 -18 2 -1 -20z"/>
<path d="M8712 4048 c-36 -88 -46 -125 -27 -106 6 5 85 196 85 204 0 2 -4 4
-8 4 -4 0 -27 -46 -50 -102z"/>
<path d="M8797 4057 c-36 -89 -46 -132 -28 -111 8 8 81 188 81 199 0 3 -4 5
-8 5 -5 0 -25 -42 -45 -93z"/>
<path d="M1950 3937 c0 -35 108 -177 183 -240 96 -81 227 -162 250 -154 7 2
-13 16 -43 32 -132 67 -260 178 -336 293 -45 67 -54 79 -54 69z"/>
<path d="M1691 3888 c-2 -44 20 -129 48 -188 35 -74 131 -170 131 -131 0 5 -9
12 -20 16 -22 7 -68 63 -95 115 -10 19 -29 76 -41 125 -12 50 -23 78 -23 63z"/>
<path d="M6620 3802 c0 -4 19 -17 43 -30 123 -66 219 -216 242 -380 4 -29 11
-52 16 -52 14 0 11 40 -11 124 -35 138 -103 239 -209 310 -50 34 -81 45 -81
28z"/>
<path d="M2420 3783 c0 -12 309 -185 322 -181 6 2 -54 40 -133 85 -184 103
-189 105 -189 96z"/>
<path d="M1532 3615 c-3 -140 43 -306 124 -454 118 -216 330 -408 605 -546
109 -55 93 -34 -20 26 -360 193 -597 469 -671 780 -11 46 -23 127 -28 179 l-9
95 -1 -80z"/>
<path d="M4228 3592 c-26 -53 -57 -118 -68 -144 -12 -27 -25 -48 -30 -48 -8 0
-109 66 -137 90 -22 18 -168 88 -220 105 -37 12 -75 16 -129 13 -77 -4 -77 -4
-118 -49 -47 -52 -89 -170 -67 -192 8 -8 11 -6 11 11 0 38 42 134 74 169 62
68 156 64 315 -12 91 -44 261 -151 261 -165 0 -4 -33 -76 -74 -161 -67 -141
-166 -384 -166 -409 0 -5 4 -10 9 -10 5 0 19 30 31 68 28 83 119 299 170 401
21 42 76 152 124 244 47 93 86 173 86 178 0 5 -6 9 -12 8 -7 0 -34 -44 -60
-97z"/>
<path d="M6758 3365 c-3 -4 0 -25 8 -47 8 -22 14 -70 14 -107 0 -76 -22 -132
-76 -198 -19 -24 -33 -47 -30 -51 15 -25 -226 -63 -305 -48 -61 12 -63 17 -30
82 37 74 47 130 31 179 -14 43 -62 100 -100 120 -46 24 -42 4 5 -27 84 -56
105 -150 54 -253 -39 -80 -39 -80 -107 -40 -77 45 -204 139 -277 205 -31 28
-60 48 -63 45 -19 -19 257 -234 374 -292 69 -34 88 -38 166 -41 163 -7 318 44
422 138 47 44 116 134 116 153 0 17 -17 4 -40 -30 -44 -66 -93 -115 -154 -155
-74 -48 -87 -48 -46 -1 56 64 85 138 84 218 0 68 -30 166 -46 150z"/>
<path d="M3438 3293 c-5 -63 6 -260 15 -269 14 -14 15 2 6 86 -5 47 -7 115 -3
151 3 40 2 69 -4 73 -6 3 -12 -13 -14 -41z"/>
<path d="M3450 2995 c0 -52 74 -353 91 -370 13 -13 11 12 -6 70 -9 28 -27 104
-40 169 -13 66 -29 124 -35 130 -6 6 -10 6 -10 1z"/>
<path d="M5926 2789 c13 -21 140 -96 208 -123 42 -17 97 -30 141 -33 75 -6
145 2 145 16 0 5 -23 4 -51 -1 -103 -19 -240 20 -363 103 -74 49 -93 58 -80
38z"/>
<path d="M3861 2746 c-21 -53 -70 -251 -87 -351 -30 -175 -20 -466 16 -525 17
-27 18 -5 3 60 -21 93 -20 340 1 460 9 52 33 154 52 227 20 73 34 138 31 145
-3 8 -9 1 -16 -16z"/>
<path d="M5760 2623 c0 -5 33 -29 73 -54 93 -60 117 -72 117 -60 0 6 -19 20
-42 32 -24 12 -64 37 -91 55 -49 35 -57 39 -57 27z"/>
<path d="M3381 2579 c-51 -16 -100 -37 -107 -46 -8 -10 -39 -55 -70 -100 -54
-79 -56 -82 -44 -116 11 -30 8 -52 -28 -203 -23 -95 -38 -181 -35 -196 6 -32
30 -56 42 -42 4 5 93 141 196 302 197 308 211 339 186 405 -13 33 -21 33 -140
-4z"/>
<path d="M1456 2507 c-55 -14 -93 -29 -100 -39 -10 -17 15 -174 99 -613 13
-66 26 -139 30 -163 11 -69 20 -73 121 -51 48 11 91 22 96 25 14 9 9 61 -36
338 -24 149 -52 321 -62 381 -15 96 -33 147 -53 144 -3 0 -46 -10 -95 -22z
m109 -7 c6 -10 16 -65 90 -524 34 -212 44 -291 35 -296 -19 -12 -170 -44 -176
-37 -12 12 -154 811 -145 820 10 10 134 44 168 46 12 0 25 -3 28 -9z"/>
<path d="M6173 2467 c8 -24 99 -49 162 -44 60 4 143 32 132 43 -3 4 -25 -1
-49 -11 -61 -24 -142 -23 -201 3 -31 14 -47 17 -44 9z"/>
<path d="M5635 2305 c54 -47 157 -100 235 -121 126 -34 310 -21 435 31 64 27
33 26 -50 -2 -70 -24 -97 -27 -210 -27 -161 -1 -237 20 -356 100 -92 62 -112
69 -54 19z"/>
<path d="M6315 2027 c-99 -119 -192 -184 -330 -232 -68 -24 -237 -25 -325 -1
-83 22 -269 113 -339 166 -29 23 -56 39 -59 36 -13 -14 154 -122 257 -167 108
-46 209 -69 305 -69 104 0 167 15 266 63 68 33 103 59 171 127 83 81 126 136
117 145 -2 2 -31 -28 -63 -68z"/>
<path d="M4767 1203 c-18 -27 -71 -103 -117 -171 -46 -67 -87 -125 -91 -128
-5 -3 -2 -21 6 -40 13 -33 12 -45 -25 -200 -46 -189 -47 -203 -21 -235 l19
-23 44 69 c275 428 342 534 350 558 18 50 1 95 -59 159 -31 32 -59 58 -64 58
-4 0 -23 -21 -42 -47z"/>
<path d="M3050 914 c0 -3 29 -46 65 -95 68 -93 72 -99 54 -99 -23 0 -184 -53
-173 -57 7 -2 53 8 103 22 l92 27 39 -36 c45 -41 55 -42 125 -16 l50 18 88
-91 c105 -110 112 -101 10 12 -40 44 -73 82 -73 85 0 2 42 28 93 57 104 58
102 57 95 64 -3 3 -34 -11 -68 -31 -101 -59 -225 -114 -258 -114 -25 0 -39 11
-79 58 -26 32 -70 91 -98 130 -45 64 -65 85 -65 66z"/>
</g>
</svg>
